# xmcd CD database file
#
# Track frame offsets:
#	150
#	43285
#	58997
#	95657
#	108895
#	138250
#	177737
#
# Disc length: 2667 seconds
#
# Revision: 0
# Processed by: cddbd v1.5.1PL0 Copyright (c) Steve Scherf et al.
# Submitted via: CDex 1.51
#
DISCID=680a6907
DTITLE=Britney Spears - Greatest Hits: My Prerogative - BONUS DISC
DYEAR=2004
DGENRE=Pop
TTITLE0=Toxic (Armand Van Helden Remix Edit)
TTITLE1=Everytime (Valentin Remix)
TTITLE2=Breathe on Me (Thin White Duke Mix)
TTITLE3=Outrageous (Junkie XL Dancehall Mix)
TTITLE4=Stronger (Miguel 'Migs' Vocal Mix)
TTITLE5=I'm A Slave 4 U (Thunderpuss Club Mix)
TTITLE6=Chris Cox Mega Mix
EXTD=YEAR: 2004
EXTT0=
EXTT1=
EXTT2=
EXTT3=
EXTT4=
EXTT5=
EXTT6=
PLAYORDER=
